# xmcd CD database file
# Generated: Son Feb 16 17:47:03 2003 by KSCD
# 
# Track frame offsets:
#       150
#       12556
#       25687
#       41232
#       53532
#       68261
#       84864
#       98799
#       120376
#       133877
#       147077
#       160728
#       172137
#       188691
#       203696
#       220266
#
# Disc length: 3191 seconds
#
# Revision: 3
# Processed by: cddbd v1.4PL0 Copyright (c) Steve Scherf et al.
# Submitted via: Kscd 1.3.3
#
DISCID=d00c7510
DTITLE=Peter Green with Nigel Watson - The Robert Johnson Songbook
DYEAR=1998
DGENRE=
TTITLE0=When You Got A Good Friend
TTITLE1=32 - 20 Blues
TTITLE2=Phonograph Blues
TTITLE3=Last Fair Deal Gone Down
TTITLE4=Stop Breakin' Down Blues
TTITLE5=Terraplane Blues
TTITLE6=Walkin' Blues
TTITLE7=Love In Vain Blues
TTITLE8=Ramblin' On My Mind
TTITLE9=Stones In My Passway
TTITLE10=Me And The Devil Blues
TTITLE11=Honeymoon Blues
TTITLE12=Kind Hearted Woman Blues
TTITLE13=I Believe I'll Dust My Broom
TTITLE14=If I Had Possession Over Judgment Day
TTITLE15=Sweet Home Chicago
EXTD=(c) 1998 Snapper Music YEAR: 1998
EXTT0=
EXTT1=
EXTT2=
EXTT3=
EXTT4=
EXTT5=
EXTT6=
EXTT7=
EXTT8=
EXTT9=
EXTT10=
EXTT11=
EXTT12=
EXTT13=
EXTT14=
EXTT15=
PLAYORDER=
